AmstelvarA2-Italic_XOET328.ufo
<glyph name="exclam" format="2">
	<unicode hex="0021"/>
	<advance width="907"/>
	<outline>
		<contour>
			<point x="181" y="124" type="qcurve" smooth="yes"/>
			<point x="181" y="179"/>
			<point x="258" y="260"/>
			<point x="318" y="260" type="qcurve" smooth="yes"/>
			<point x="377" y="260"/>
			<point x="454" y="179"/>
			<point x="454" y="124" type="qcurve" smooth="yes"/>
			<point x="454" y="70"/>
			<point x="377" y="-12"/>
			<point x="318" y="-12" type="qcurve" smooth="yes"/>
			<point x="258" y="-12"/>
			<point x="181" y="70"/>
		</contour>
		<contour>
			<point x="238" y="1304" type="line" smooth="yes"/>
			<point x="238" y="1371"/>
			<point x="403" y="1555"/>
			<point x="576" y="1543" type="qcurve" smooth="yes"/>
			<point x="748" y="1530"/>
			<point x="853" y="1326"/>
			<point x="827" y="1259" type="qcurve" smooth="yes"/>
			<point x="762" y="1087" type="line"/>
			<point x="534" y="793" type="line"/>
			<point x="452" y="608" type="line"/>
			<point x="360" y="614" type="line"/>
			<point x="350" y="809" type="line"/>
			<point x="239" y="1127" type="line"/>
		</contour>
	</outline>
</glyph>
<glyph name="quotedbl" format="2">
	<unicode hex="0022"/>
	<advance width="1494"/>
	<outline>
		<contour>
			<point x="401" y="964" type="line"/>
			<point x="280" y="1300" type="line" smooth="yes"/>
			<point x="232" y="1450"/>
			<point x="411" y="1558"/>
			<point x="545" y="1558" type="qcurve" smooth="yes"/>
			<point x="700" y="1558"/>
			<point x="823" y="1435"/>
			<point x="720" y="1299" type="qcurve" smooth="yes"/>
			<point x="455" y="964" type="line"/>
		</contour>
		<contour>
			<point x="1066" y="964" type="line"/>
			<point x="945" y="1300" type="line" smooth="yes"/>
			<point x="896" y="1450"/>
			<point x="1076" y="1558"/>
			<point x="1210" y="1558" type="qcurve" smooth="yes"/>
			<point x="1365" y="1558"/>
			<point x="1488" y="1435"/>
			<point x="1385" y="1299" type="qcurve" smooth="yes"/>
			<point x="1120" y="964" type="line"/>
		</contour>
	</outline>
</glyph>
<glyph name="numbersign" format="2">
	<unicode hex="0023"/>
	<advance width="1324"/>
	<outline>
		<contour>
			<point x="-3" y="113" type="line"/>
			<point x="116" y="653" type="line"/>
			<point x="1132" y="653" type="line"/>
			<point x="1013" y="113" type="line"/>
		</contour>
		<contour>
			<point x="175" y="854" type="line"/>
			<point x="295" y="1394" type="line"/>
			<point x="1311" y="1394" type="line"/>
			<point x="1191" y="854" type="line"/>
		</contour>
		<contour>
			<point x="128" y="22" type="line"/>
			<point x="686" y="1539" type="line"/>
			<point x="785" y="1512" type="line"/>
			<point x="227" y="-5" type="line"/>
		</contour>
		<contour>
			<point x="541" y="22" type="line"/>
			<point x="1099" y="1539" type="line"/>
			<point x="1198" y="1512" type="line"/>
			<point x="640" y="-5" type="line"/>
		</contour>
	</outline>
</glyph>
<glyph name="ampersand" format="2">
	<unicode hex="0026"/>
	<advance width="2343"/>
	<outline>
		<contour>
			<point x="1837" y="-10" type="line"/>
			<point x="1641" y="361" type="line"/>
			<point x="1326" y="114"/>
			<point x="803" y="-23"/>
			<point x="526" y="-23" type="qcurve" smooth="yes"/>
			<point x="241" y="-23"/>
			<point x="-55" y="228"/>
			<point x="-24" y="400" type="qcurve" smooth="yes"/>
			<point x="8" y="577"/>
			<point x="610" y="783"/>
			<point x="929" y="807" type="qcurve"/>
			<point x="538" y="837"/>
			<point x="241" y="1062"/>
			<point x="277" y="1211" type="qcurve" smooth="yes"/>
			<point x="316" y="1371"/>
			<point x="787" y="1520"/>
			<point x="1087" y="1520" type="qcurve" smooth="yes"/>
			<point x="1250" y="1520"/>
			<point x="1523" y="1460"/>
			<point x="1560" y="1460" type="qcurve" smooth="yes"/>
			<point x="1576" y="1460"/>
			<point x="1605" y="1466"/>
			<point x="1641" y="1487" type="qcurve"/>
			<point x="1700" y="1487" type="line"/>
			<point x="1616" y="1102" type="line"/>
			<point x="1522" y="1102" type="line"/>
			<point x="1506" y="1331" type="line"/>
			<point x="1435" y="1370"/>
			<point x="1276" y="1401"/>
			<point x="1173" y="1401" type="qcurve" smooth="yes"/>
			<point x="1063" y="1401"/>
			<point x="918" y="1289"/>
			<point x="896" y="1177" type="qcurve" smooth="yes"/>
			<point x="871" y="1045"/>
			<point x="1020" y="841"/>
			<point x="1294" y="841" type="qcurve" smooth="yes"/>
			<point x="1784" y="841"/>
			<point x="2215" y="842"/>
			<point x="2293" y="916" type="qcurve"/>
			<point x="2361" y="851" type="line"/>
			<point x="2342" y="797"/>
			<point x="2206" y="697"/>
			<point x="2061" y="697" type="qcurve" smooth="yes"/>
			<point x="1938" y="697"/>
			<point x="1256" y="736"/>
			<point x="1115" y="736" type="qcurve" smooth="yes"/>
			<point x="914" y="736"/>
			<point x="668" y="580"/>
			<point x="638" y="428" type="qcurve" smooth="yes"/>
			<point x="609" y="282"/>
			<point x="715" y="102"/>
			<point x="858" y="102" type="qcurve" smooth="yes"/>
			<point x="1016" y="102"/>
			<point x="1257" y="274"/>
			<point x="1328" y="450" type="qcurve" smooth="yes"/>
			<point x="1457" y="769" type="line"/>
			<point x="2124" y="762" type="line"/>
			<point x="1994" y="478"/>
			<point x="1901" y="172"/>
			<point x="1940" y="40" type="qcurve"/>
		</contour>
	</outline>
</glyph>
<glyph name="quotesingle" format="2">
	<unicode hex="0027"/>
	<advance width="817"/>
	<outline>
		<contour>
			<point x="393" y="964" type="line"/>
			<point x="272" y="1301" type="line" smooth="yes"/>
			<point x="224" y="1451"/>
			<point x="402" y="1558"/>
			<point x="537" y="1558" type="qcurve" smooth="yes"/>
			<point x="691" y="1558"/>
			<point x="813" y="1436"/>
			<point x="711" y="1300" type="qcurve" smooth="yes"/>
			<point x="447" y="964" type="line"/>
		</contour>
	</outline>
</glyph>
<glyph name="parenleft" format="2">
	<unicode hex="0028"/>
	<advance width="880"/>
	<outline>
		<contour>
			<point x="27" y="545" type="qcurve" smooth="yes"/>
			<point x="86" y="841"/>
			<point x="712" y="1372"/>
			<point x="1024" y="1486" type="qcurve"/>
			<point x="1078" y="1407" type="line"/>
			<point x="924" y="1264"/>
			<point x="633" y="779"/>
			<point x="578" y="500" type="qcurve" smooth="yes"/>
			<point x="522" y="222"/>
			<point x="609" y="-301"/>
			<point x="707" y="-462" type="qcurve"/>
			<point x="623" y="-529" type="line"/>
			<point x="365" y="-368"/>
			<point x="-34" y="237"/>
		</contour>
	</outline>
</glyph>
<glyph name="parenright" format="2">
	<unicode hex="0029"/>
	<advance width="1031"/>
	<outline>
		<contour>
			<point x="1000" y="463" type="qcurve" smooth="yes"/>
			<point x="938" y="155"/>
			<point x="315" y="-365"/>
			<point x="3" y="-478" type="qcurve"/>
			<point x="-55" y="-420" type="line"/>
			<point x="103" y="-278"/>
			<point x="392" y="223"/>
			<point x="449" y="508" type="qcurve" smooth="yes"/>
			<point x="506" y="793"/>
			<point x="417" y="1323"/>
			<point x="325" y="1490" type="qcurve"/>
			<point x="404" y="1536" type="line"/>
			<point x="662" y="1375"/>
			<point x="1058" y="759"/>
		</contour>
	</outline>
</glyph>
<glyph name="asterisk" format="2">
	<unicode hex="002A"/>
	<advance width="1004"/>
	<outline>
		<contour>
			<point x="423" y="686" type="qcurve" smooth="yes"/>
			<point x="333" y="709"/>
			<point x="297" y="864"/>
			<point x="341" y="909" type="qcurve" smooth="yes"/>
			<point x="526" y="1095" type="line"/>
			<point x="523" y="1097" type="line"/>
			<point x="336" y="924" type="line" smooth="yes"/>
			<point x="279" y="871"/>
			<point x="137" y="918"/>
			<point x="114" y="1007" type="qcurve" smooth="yes"/>
			<point x="91" y="1092"/>
			<point x="188" y="1193"/>
			<point x="266" y="1190" type="qcurve" smooth="yes"/>
			<point x="514" y="1130" type="line"/>
			<point x="516" y="1134" type="line"/>
			<point x="269" y="1212" type="line" smooth="yes"/>
			<point x="209" y="1231"/>
			<point x="164" y="1383"/>
			<point x="230" y="1448" type="qcurve" smooth="yes"/>
			<point x="295" y="1513"/>
			<point x="445" y="1466"/>
			<point x="463" y="1406" type="qcurve" smooth="yes"/>
			<point x="537" y="1160" type="line"/>
			<point x="542" y="1162" type="line"/>
			<point x="487" y="1408" type="line" smooth="yes"/>
			<point x="473" y="1469"/>
			<point x="579" y="1586"/>
			<point x="671" y="1561" type="qcurve" smooth="yes"/>
			<point x="760" y="1537"/>
			<point x="784" y="1389"/>
			<point x="753" y="1335" type="qcurve" smooth="yes"/>
			<point x="576" y="1152" type="line"/>
			<point x="580" y="1149" type="line"/>
			<point x="781" y="1329" type="line" smooth="yes"/>
			<point x="839" y="1379"/>
			<point x="968" y="1321"/>
			<point x="990" y="1239" type="qcurve" smooth="yes"/>
			<point x="1013" y="1154"/>
			<point x="925" y="1053"/>
			<point x="853" y="1058" type="qcurve" smooth="yes"/>
			<point x="589" y="1115" type="line"/>
			<point x="587" y="1111" type="line"/>
			<point x="832" y="1032" type="line" smooth="yes"/>
			<point x="892" y="1012"/>
			<point x="938" y="862"/>
			<point x="870" y="796" type="qcurve" smooth="yes"/>
			<point x="806" y="731"/>
			<point x="657" y="775"/>
			<point x="638" y="839" type="qcurve" smooth="yes"/>
			<point x="566" y="1087" type="line"/>
			<point x="559" y="1085" type="line"/>
			<point x="606" y="837" type="line" smooth="yes"/>
			<point x="618" y="776"/>
			<point x="513" y="661"/>
		</contour>
	</outline>
</glyph>
<glyph name="question" format="2">
	<unicode hex="003F"/>
	<advance width="1592"/>
	<outline>
		<contour>
			<point x="107" y="1168" type="qcurve" smooth="yes"/>
			<point x="134" y="1308"/>
			<point x="552" y="1540"/>
			<point x="827" y="1540" type="qcurve" smooth="yes"/>
			<point x="1275" y="1540"/>
			<point x="1633" y="1344"/>
			<point x="1633" y="1188" type="qcurve" smooth="yes"/>
			<point x="1633" y="1019"/>
			<point x="1299" y="826"/>
			<point x="1021" y="745" type="qcurve" smooth="yes"/>
			<point x="925" y="717"/>
			<point x="699" y="644"/>
			<point x="635" y="598" type="qcurve" smooth="yes"/>
			<point x="619" y="582" type="line"/>
			<point x="507" y="582" type="line"/>
			<point x="513" y="603" type="line" smooth="yes"/>
			<point x="527" y="661"/>
			<point x="625" y="774"/>
			<point x="740" y="842" type="qcurve" smooth="yes"/>
			<point x="885" y="928"/>
			<point x="1013" y="1125"/>
			<point x="1013" y="1233" type="qcurve" smooth="yes"/>
			<point x="1013" y="1325"/>
			<point x="890" y="1429"/>
			<point x="773" y="1429" type="qcurve" smooth="yes"/>
			<point x="651" y="1429"/>
			<point x="496" y="1342"/>
			<point x="486" y="1289" type="qcurve" smooth="yes"/>
			<point x="477" y="1241"/>
			<point x="612" y="1148"/>
			<point x="598" y="1067" type="qcurve" smooth="yes"/>
			<point x="588" y="1000"/>
			<point x="453" y="890"/>
			<point x="341" y="890" type="qcurve" smooth="yes"/>
			<point x="213" y="890"/>
			<point x="84" y="1048"/>
		</contour>
		<contour>
			<point x="415" y="124" type="qcurve" smooth="yes"/>
			<point x="415" y="179"/>
			<point x="492" y="260"/>
			<point x="552" y="260" type="qcurve" smooth="yes"/>
			<point x="611" y="260"/>
			<point x="688" y="179"/>
			<point x="688" y="124" type="qcurve" smooth="yes"/>
			<point x="688" y="70"/>
			<point x="611" y="-12"/>
			<point x="552" y="-12" type="qcurve" smooth="yes"/>
			<point x="492" y="-12"/>
			<point x="415" y="70"/>
		</contour>
	</outline>
</glyph>
<glyph name="at" format="2">
	<unicode hex="0040"/>
	<advance width="2413"/>
	<outline>
		<contour>
			<point x="433" y="567" type="qcurve" smooth="yes"/>
			<point x="433" y="811"/>
			<point x="1057" y="1170"/>
			<point x="1360" y="1170" type="qcurve" smooth="yes"/>
			<point x="1376" y="1170"/>
			<point x="1408" y="1164"/>
			<point x="1423" y="1159" type="qcurve"/>
			<point x="1891" y="1210" type="line"/>
			<point x="1933" y="1210" type="line"/>
			<point x="1991" y="1097" type="line"/>
			<point x="1877" y="663" type="line"/>
			<point x="1846" y="492" type="line"/>
			<point x="1850" y="482"/>
			<point x="1879" y="465"/>
			<point x="1913" y="465" type="qcurve" smooth="yes"/>
			<point x="2022" y="465"/>
			<point x="2203" y="667"/>
			<point x="2236" y="835" type="qcurve" smooth="yes"/>
			<point x="2286" y="1090"/>
			<point x="1884" y="1384"/>
			<point x="1340" y="1384" type="qcurve" smooth="yes"/>
			<point x="886" y="1384"/>
			<point x="282" y="1040"/>
			<point x="231" y="737" type="qcurve" smooth="yes"/>
			<point x="181" y="438"/>
			<point x="587" y="99"/>
			<point x="1090" y="99" type="qcurve" smooth="yes"/>
			<point x="1270" y="99"/>
			<point x="1515" y="142"/>
			<point x="1612" y="188" type="qcurve"/>
			<point x="1672" y="108" type="line"/>
			<point x="1588" y="46"/>
			<point x="1265" y="-30"/>
			<point x="1060" y="-30" type="qcurve" smooth="yes"/>
			<point x="545" y="-30"/>
			<point x="17" y="390"/>
			<point x="81" y="725" type="qcurve" smooth="yes"/>
			<point x="155" y="1108"/>
			<point x="851" y="1520"/>
			<point x="1366" y="1520" type="qcurve" smooth="yes"/>
			<point x="1879" y="1520"/>
			<point x="2452" y="1181"/>
			<point x="2384" y="829" type="qcurve" smooth="yes"/>
			<point x="2345" y="625"/>
			<point x="2035" y="354"/>
			<point x="1764" y="354" type="qcurve" smooth="yes"/>
			<point x="1526" y="354"/>
			<point x="1342" y="446"/>
			<point x="1329" y="507" type="qcurve"/>
			<point x="1156" y="411"/>
			<point x="896" y="356"/>
			<point x="784" y="356" type="qcurve" smooth="yes"/>
			<point x="585" y="356"/>
			<point x="433" y="478"/>
		</contour>
		<contour>
			<point x="921" y="609" type="qcurve" smooth="yes"/>
			<point x="921" y="548"/>
			<point x="980" y="467"/>
			<point x="1043" y="467" type="qcurve" smooth="yes"/>
			<point x="1151" y="467"/>
			<point x="1353" y="620"/>
			<point x="1386" y="763" type="qcurve" smooth="yes"/>
			<point x="1441" y="1003" type="line"/>
			<point x="1438" y="1036"/>
			<point x="1369" y="1057"/>
			<point x="1331" y="1057" type="qcurve" smooth="yes"/>
			<point x="1148" y="1057"/>
			<point x="921" y="799"/>
		</contour>
	</outline>
</glyph>
<glyph name="bracketleft" format="2">
	<unicode hex="005B"/>
	<advance width="1014"/>
	<outline>
		<contour>
			<point x="120" y="508" type="line"/>
			<point x="274" y="1362" type="line"/>
			<point x="259" y="1382" type="line"/>
			<point x="282" y="1500" type="line"/>
			<point x="1118" y="1500" type="line"/>
			<point x="1094" y="1381" type="line"/>
			<point x="832" y="1362" type="line"/>
			<point x="654" y="508" type="line"/>
			<point x="501" y="-342" type="line"/>
			<point x="756" y="-361" type="line"/>
			<point x="733" y="-480" type="line"/>
			<point x="-103" y="-480" type="line"/>
			<point x="-80" y="-362" type="line"/>
			<point x="-57" y="-342" type="line"/>
		</contour>
	</outline>
</glyph>
<glyph name="asciicircum" format="2">
	<unicode hex="005E"/>
	<advance width="1317"/>
	<outline>
		<contour>
			<point x="156" y="926" type="line"/>
			<point x="222" y="988"/>
			<point x="762" y="1499"/>
			<point x="788" y="1524" type="qcurve"/>
			<point x="807" y="1499"/>
			<point x="1182" y="989"/>
			<point x="1228" y="927" type="qcurve"/>
			<point x="1134" y="829" type="line"/>
			<point x="998" y="902"/>
			<point x="761" y="1024"/>
			<point x="722" y="1046" type="qcurve"/>
			<point x="657" y="1014"/>
			<point x="406" y="906"/>
			<point x="239" y="831" type="qcurve"/>
		</contour>
	</outline>
</glyph>
<glyph name="braceleft" format="2">
	<unicode hex="007B"/>
	<advance width="1066"/>
	<outline>
		<contour>
			<point x="-23" y="491" type="line"/>
			<point x="-2" y="599" type="line"/>
			<point x="131" y="599" type="line" smooth="yes"/>
			<point x="188" y="599"/>
			<point x="248" y="660"/>
			<point x="259" y="716" type="qcurve" smooth="yes"/>
			<point x="282" y="834"/>
			<point x="217" y="1066"/>
			<point x="240" y="1184" type="qcurve" smooth="yes"/>
			<point x="272" y="1347"/>
			<point x="620" y="1510"/>
			<point x="892" y="1510" type="qcurve" smooth="yes"/>
			<point x="1010" y="1510"/>
			<point x="1110" y="1503"/>
			<point x="1172" y="1500" type="qcurve"/>
			<point x="1149" y="1386" type="line"/>
			<point x="1098" y="1388"/>
			<point x="1055" y="1388"/>
			<point x="1006" y="1388" type="qcurve" smooth="yes"/>
			<point x="924" y="1388"/>
			<point x="815" y="1294"/>
			<point x="795" y="1196" type="qcurve" smooth="yes"/>
			<point x="776" y="1094"/>
			<point x="821" y="883"/>
			<point x="803" y="792" type="qcurve" smooth="yes"/>
			<point x="784" y="697"/>
			<point x="695" y="571"/>
			<point x="640" y="550" type="qcurve"/>
			<point x="696" y="516"/>
			<point x="724" y="384"/>
			<point x="710" y="314" type="qcurve" smooth="yes"/>
			<point x="692" y="223"/>
			<point x="518" y="-78"/>
			<point x="498" y="-180" type="qcurve" smooth="yes"/>
			<point x="479" y="-278"/>
			<point x="556" y="-374"/>
			<point x="638" y="-374" type="qcurve" smooth="yes"/>
			<point x="687" y="-374"/>
			<point x="750" y="-374"/>
			<point x="803" y="-372" type="qcurve"/>
			<point x="781" y="-484" type="line"/>
			<point x="710" y="-487"/>
			<point x="561" y="-495"/>
			<point x="434" y="-495" type="qcurve" smooth="yes"/>
			<point x="152" y="-495"/>
			<point x="-85" y="-334"/>
			<point x="-53" y="-168" type="qcurve" smooth="yes"/>
			<point x="-30" y="-50"/>
			<point x="167" y="246"/>
			<point x="190" y="364" type="qcurve"/>
			<point x="212" y="481" type="line"/>
		</contour>
	</outline>
</glyph>
<glyph name="braceright" format="2">
	<unicode hex="007D"/>
	<advance width="1066"/>
	<outline>
		<contour>
			<point x="-213" y="-484" type="qcurve"/>
			<point x="-191" y="-372" type="line"/>
			<point x="-140" y="-374"/>
			<point x="-97" y="-374"/>
			<point x="-48" y="-374" type="qcurve" smooth="yes"/>
			<point x="34" y="-374"/>
			<point x="149" y="-278"/>
			<point x="168" y="-180" type="qcurve" smooth="yes"/>
			<point x="188" y="-78"/>
			<point x="150" y="223"/>
			<point x="168" y="314" type="qcurve" smooth="yes"/>
			<point x="182" y="384"/>
			<point x="260" y="516"/>
			<point x="330" y="550" type="qcurve"/>
			<point x="283" y="571"/>
			<point x="242" y="697"/>
			<point x="261" y="792" type="qcurve" smooth="yes"/>
			<point x="279" y="883"/>
			<point x="426" y="1094"/>
			<point x="445" y="1196" type="qcurve" smooth="yes"/>
			<point x="465" y="1294"/>
			<point x="392" y="1388"/>
			<point x="310" y="1388" type="qcurve" smooth="yes"/>
			<point x="261" y="1388"/>
			<point x="198" y="1388"/>
			<point x="145" y="1386" type="qcurve"/>
			<point x="168" y="1500" type="line"/>
			<point x="236" y="1503"/>
			<point x="388" y="1510"/>
			<point x="517" y="1510" type="qcurve" smooth="yes"/>
			<point x="789" y="1510"/>
			<point x="1030" y="1357"/>
			<point x="996" y="1184" type="qcurve" smooth="yes"/>
			<point x="973" y="1066"/>
			<point x="798" y="834"/>
			<point x="775" y="716" type="qcurve"/>
			<point x="772" y="598" type="line"/>
			<point x="986" y="592" type="line"/>
			<point x="965" y="484" type="line"/>
			<point x="820" y="481" type="line" smooth="yes"/>
			<point x="751" y="480"/>
			<point x="708" y="402"/>
			<point x="708" y="364" type="qcurve" smooth="yes"/>
			<point x="708" y="288"/>
			<point x="746" y="-50"/>
			<point x="723" y="-168" type="qcurve" smooth="yes"/>
			<point x="690" y="-336"/>
			<point x="313" y="-495"/>
			<point x="66" y="-495" type="qcurve" smooth="yes"/>
			<point x="-52" y="-495"/>
			<point x="-153" y="-487"/>
		</contour>
	</outline>
</glyph>
<glyph name="exclamdown" format="2">
	<unicode hex="00A1"/>
	<advance width="907"/>
	<outline>
		<contour>
			<point x="715" y="1212" type="qcurve" smooth="yes"/>
			<point x="715" y="1157"/>
			<point x="638" y="1076"/>
			<point x="578" y="1076" type="qcurve" smooth="yes"/>
			<point x="519" y="1076"/>
			<point x="442" y="1157"/>
			<point x="442" y="1212" type="qcurve" smooth="yes"/>
			<point x="442" y="1266"/>
			<point x="519" y="1348"/>
			<point x="578" y="1348" type="qcurve" smooth="yes"/>
			<point x="638" y="1348"/>
			<point x="715" y="1266"/>
		</contour>
		<contour>
			<point x="658" y="33" type="line" smooth="yes"/>
			<point x="658" y="-37"/>
			<point x="493" y="-223"/>
			<point x="319" y="-210" type="qcurve" smooth="yes"/>
			<point x="146" y="-198"/>
			<point x="42" y="9"/>
			<point x="68" y="77" type="qcurve" smooth="yes"/>
			<point x="134" y="249" type="line"/>
			<point x="361" y="543" type="line"/>
			<point x="443" y="728" type="line"/>
			<point x="536" y="722" type="line"/>
			<point x="545" y="527" type="line"/>
			<point x="656" y="209" type="line"/>
		</contour>
	</outline>
</glyph>
<glyph name="copyright" format="2">
	<unicode hex="00A9"/>
	<advance width="2048"/>
	<outline>
		<contour>
			<point x="496" y="662" type="qcurve" smooth="yes"/>
			<point x="496" y="901"/>
			<point x="797" y="1209"/>
			<point x="1058" y="1209" type="qcurve" smooth="yes"/>
			<point x="1130" y="1209"/>
			<point x="1262" y="1176"/>
			<point x="1292" y="1152" type="qcurve"/>
			<point x="1324" y="1206" type="line"/>
			<point x="1412" y="1177" type="line"/>
			<point x="1428" y="851" type="line"/>
			<point x="1330" y="834" type="line"/>
			<point x="1299" y="1019" type="line"/>
			<point x="1271" y="1053"/>
			<point x="1205" y="1098"/>
			<point x="1168" y="1098" type="qcurve" smooth="yes"/>
			<point x="1079" y="1098"/>
			<point x="969" y="898"/>
			<point x="969" y="704" type="qcurve" smooth="yes"/>
			<point x="969" y="502"/>
			<point x="1099" y="295"/>
			<point x="1183" y="295" type="qcurve" smooth="yes"/>
			<point x="1260" y="295"/>
			<point x="1404" y="398"/>
			<point x="1452" y="455" type="qcurve"/>
			<point x="1512" y="380" type="line"/>
			<point x="1450" y="287"/>
			<point x="1212" y="165"/>
			<point x="1086" y="165" type="qcurve" smooth="yes"/>
			<point x="819" y="165"/>
			<point x="496" y="433"/>
		</contour>
		<contour>
			<point x="143" y="685" type="qcurve" smooth="yes"/>
			<point x="143" y="1061"/>
			<point x="664" y="1570"/>
			<point x="1068" y="1570" type="qcurve" smooth="yes"/>
			<point x="1470" y="1570"/>
			<point x="1989" y="1087"/>
			<point x="1989" y="706" type="qcurve" smooth="yes"/>
			<point x="1989" y="288"/>
			<point x="1477" y="-242"/>
			<point x="1080" y="-242" type="qcurve" smooth="yes"/>
			<point x="671" y="-242"/>
			<point x="143" y="276"/>
		</contour>
		<contour>
			<point x="310" y="681" type="qcurve" smooth="yes"/>
			<point x="310" y="336"/>
			<point x="766" y="-116"/>
			<point x="1096" y="-116" type="qcurve" smooth="yes"/>
			<point x="1416" y="-116"/>
			<point x="1822" y="361"/>
			<point x="1822" y="698" type="qcurve" smooth="yes"/>
			<point x="1822" y="1006"/>
			<point x="1393" y="1444"/>
			<point x="1048" y="1444" type="qcurve" smooth="yes"/>
			<point x="721" y="1444"/>
			<point x="310" y="997"/>
		</contour>
	</outline>
</glyph>
<glyph name="ordfeminine" format="2">
	<unicode hex="00AA"/>
	<advance width="1577"/>
	<outline>
		<contour>
			<point x="639" y="928" type="qcurve" smooth="yes"/>
			<point x="639" y="873"/>
			<point x="683" y="799"/>
			<point x="735" y="799" type="qcurve" smooth="yes"/>
			<point x="823" y="799"/>
			<point x="989" y="939"/>
			<point x="1016" y="1071" type="qcurve" smooth="yes"/>
			<point x="1061" y="1291" type="line"/>
			<point x="1058" y="1321"/>
			<point x="1001" y="1340"/>
			<point x="971" y="1340" type="qcurve" smooth="yes"/>
			<point x="821" y="1340"/>
			<point x="639" y="1103"/>
		</contour>
		<contour>
			<point x="127" y="882" type="qcurve" smooth="yes"/>
			<point x="127" y="1115"/>
			<point x="689" y="1461"/>
			<point x="961" y="1461" type="qcurve" smooth="yes"/>
			<point x="985" y="1461"/>
			<point x="1057" y="1451"/>
			<point x="1082" y="1442" type="qcurve"/>
			<point x="1534" y="1499" type="line"/>
			<point x="1571" y="1499" type="line"/>
			<point x="1623" y="1391" type="line"/>
			<point x="1522" y="974" type="line"/>
			<point x="1483" y="787" type="line"/>
			<point x="1516" y="702" type="line"/>
			<point x="995" y="681" type="line"/>
			<point x="940" y="805" type="line"/>
			<point x="820" y="737"/>
			<point x="599" y="680"/>
			<point x="448" y="680" type="qcurve"/>
			<point x="279" y="680"/>
			<point x="127" y="797"/>
		</contour>
	</outline>
</glyph>
<glyph name="guillemotleft" format="2">
	<unicode hex="00AB"/>
	<advance width="1295"/>
	<outline>
		<contour>
			<point x="49" y="624" type="line"/>
			<point x="141" y="676"/>
			<point x="634" y="953"/>
			<point x="713" y="993" type="qcurve" smooth="yes"/>
			<point x="771" y="1023"/>
			<point x="831" y="935"/>
			<point x="780" y="877" type="qcurve" smooth="yes"/>
			<point x="724" y="809"/>
			<point x="614" y="677"/>
			<point x="539" y="599" type="qcurve"/>
			<point x="574" y="527"/>
			<point x="626" y="383"/>
			<point x="662" y="298" type="qcurve" smooth="yes"/>
			<point x="688" y="240"/>
			<point x="622" y="177"/>
			<point x="559" y="213" type="qcurve" smooth="yes"/>
			<point x="499" y="247"/>
			<point x="105" y="537"/>
			<point x="41" y="584" type="qcurve"/>
		</contour>
		<contour>
			<point x="527" y="605" type="line"/>
			<point x="619" y="657"/>
			<point x="1112" y="934"/>
			<point x="1191" y="974" type="qcurve" smooth="yes"/>
			<point x="1249" y="1004"/>
			<point x="1309" y="916"/>
			<point x="1258" y="858" type="qcurve" smooth="yes"/>
			<point x="1202" y="790"/>
			<point x="1092" y="658"/>
			<point x="1017" y="580" type="qcurve"/>
			<point x="1049" y="508"/>
			<point x="1090" y="377"/>
			<point x="1122" y="298" type="qcurve" smooth="yes"/>
			<point x="1148" y="240"/>
			<point x="1081" y="178"/>
			<point x="1019" y="213" type="qcurve" smooth="yes"/>
			<point x="959" y="247"/>
			<point x="585" y="517"/>
			<point x="519" y="565" type="qcurve"/>
		</contour>
	</outline>
</glyph>
<glyph name="registered" format="2">
	<unicode hex="00AE"/>
	<advance width="2048"/>
	<outline>
		<contour>
			<point x="143" y="685" type="qcurve" smooth="yes"/>
			<point x="143" y="1061"/>
			<point x="664" y="1570"/>
			<point x="1068" y="1570" type="qcurve" smooth="yes"/>
			<point x="1470" y="1570"/>
			<point x="1989" y="1087"/>
			<point x="1989" y="706" type="qcurve" smooth="yes"/>
			<point x="1989" y="288"/>
			<point x="1477" y="-242"/>
			<point x="1080" y="-242" type="qcurve" smooth="yes"/>
			<point x="671" y="-242"/>
			<point x="143" y="276"/>
		</contour>
		<contour>
			<point x="310" y="681" type="qcurve" smooth="yes"/>
			<point x="310" y="336"/>
			<point x="766" y="-116"/>
			<point x="1096" y="-116" type="qcurve" smooth="yes"/>
			<point x="1416" y="-116"/>
			<point x="1822" y="361"/>
			<point x="1822" y="698" type="qcurve" smooth="yes"/>
			<point x="1822" y="1006"/>
			<point x="1393" y="1444"/>
			<point x="1048" y="1444" type="qcurve" smooth="yes"/>
			<point x="721" y="1444"/>
			<point x="310" y="997"/>
		</contour>
		<contour>
			<point x="527" y="176" type="line"/>
			<point x="517" y="266" type="line"/>
			<point x="634" y="290" type="line"/>
			<point x="645" y="723" type="line"/>
			<point x="634" y="1088" type="line"/>
			<point x="507" y="1111" type="line"/>
			<point x="507" y="1209" type="line"/>
			<point x="1189" y="1209" type="line" smooth="yes"/>
			<point x="1347" y="1209"/>
			<point x="1500" y="1082"/>
			<point x="1500" y="968" type="qcurve" smooth="yes"/>
			<point x="1500" y="841"/>
			<point x="1313" y="664"/>
			<point x="1187" y="664" type="qcurve" smooth="yes"/>
			<point x="1136" y="664"/>
			<point x="979" y="673"/>
			<point x="955" y="673" type="qcurve"/>
			<point x="955" y="758" type="line"/>
			<point x="1008" y="758" type="line" smooth="yes"/>
			<point x="1093" y="758"/>
			<point x="1154" y="868"/>
			<point x="1154" y="959" type="qcurve" smooth="yes"/>
			<point x="1154" y="1039"/>
			<point x="1087" y="1108"/>
			<point x="1014" y="1108" type="qcurve" smooth="yes"/>
			<point x="1008" y="1108" type="line"/>
			<point x="987" y="1095" type="line"/>
			<point x="974" y="723" type="line"/>
			<point x="985" y="290" type="line"/>
			<point x="1117" y="266" type="line"/>
			<point x="1117" y="176" type="line"/>
		</contour>
		<contour>
			<point x="892" y="710" type="line"/>
			<point x="1240" y="740" type="line"/>
			<point x="1491" y="393" type="line" smooth="yes"/>
			<point x="1562" y="295"/>
			<point x="1657" y="266"/>
			<point x="1699" y="266" type="qcurve"/>
			<point x="1699" y="176" type="line"/>
			<point x="1310" y="176" type="line"/>
			<point x="1268" y="190" type="line"/>
		</contour>
	</outline>
</glyph>
<glyph name="ordmasculine" format="2">
	<unicode hex="00BA"/>
	<advance width="1608"/>
	<outline>
		<contour>
			<point x="154" y="1106" type="qcurve" smooth="yes"/>
			<point x="196" y="1288"/>
			<point x="690" y="1518"/>
			<point x="990" y="1499" type="qcurve" smooth="yes"/>
			<point x="1369" y="1473"/>
			<point x="1683" y="1259"/>
			<point x="1638" y="1060" type="qcurve" smooth="yes"/>
			<point x="1597" y="879"/>
			<point x="1105" y="643"/>
			<point x="804" y="662" type="qcurve" smooth="yes"/>
			<point x="423" y="688"/>
			<point x="109" y="905"/>
		</contour>
		<contour>
			<point x="666" y="1108" type="qcurve" smooth="yes"/>
			<point x="636" y="973"/>
			<point x="715" y="779"/>
			<point x="822" y="771" type="qcurve" smooth="yes"/>
			<point x="937" y="763"/>
			<point x="1094" y="929"/>
			<point x="1126" y="1071" type="qcurve" smooth="yes"/>
			<point x="1156" y="1202"/>
			<point x="1071" y="1378"/>
			<point x="964" y="1385" type="qcurve" smooth="yes"/>
			<point x="848" y="1393"/>
			<point x="696" y="1244"/>
		</contour>
	</outline>
</glyph>
<glyph name="guillemotright" format="2">
	<unicode hex="00BB"/>
	<advance width="1295"/>
	<outline>
		<contour>
			<point x="775" y="586" type="line"/>
			<point x="683" y="534"/>
			<point x="190" y="257"/>
			<point x="111" y="217" type="qcurve" smooth="yes"/>
			<point x="53" y="187"/>
			<point x="-7" y="275"/>
			<point x="44" y="333" type="qcurve" smooth="yes"/>
			<point x="100" y="401"/>
			<point x="211" y="533"/>
			<point x="285" y="611" type="qcurve"/>
			<point x="253" y="684"/>
			<point x="212" y="815"/>
			<point x="180" y="893" type="qcurve" smooth="yes"/>
			<point x="154" y="951"/>
			<point x="221" y="1013"/>
			<point x="283" y="978" type="qcurve" smooth="yes"/>
			<point x="343" y="944"/>
			<point x="717" y="674"/>
			<point x="783" y="626" type="qcurve"/>
		</contour>
		<contour>
			<point x="1253" y="567" type="line"/>
			<point x="1161" y="515"/>
			<point x="668" y="238"/>
			<point x="589" y="198" type="qcurve" smooth="yes"/>
			<point x="531" y="168"/>
			<point x="471" y="256"/>
			<point x="522" y="314" type="qcurve" smooth="yes"/>
			<point x="579" y="382"/>
			<point x="689" y="514"/>
			<point x="763" y="592" type="qcurve"/>
			<point x="728" y="665"/>
			<point x="676" y="808"/>
			<point x="640" y="893" type="qcurve" smooth="yes"/>
			<point x="614" y="951"/>
			<point x="680" y="1014"/>
			<point x="743" y="978" type="qcurve" smooth="yes"/>
			<point x="803" y="944"/>
			<point x="1197" y="654"/>
			<point x="1261" y="607" type="qcurve"/>
		</contour>
	</outline>
</glyph>
<glyph name="questiondown" format="2">
	<unicode hex="00BF"/>
	<advance width="1473"/>
	<outline>
		<contour>
			<point x="1363" y="148" type="qcurve" smooth="yes"/>
			<point x="1336" y="8"/>
			<point x="918" y="-222"/>
			<point x="642" y="-222" type="qcurve" smooth="yes"/>
			<point x="283" y="-222"/>
			<point x="-53" y="-28"/>
			<point x="-53" y="128" type="qcurve" smooth="yes"/>
			<point x="-53" y="298"/>
			<point x="242" y="512"/>
			<point x="471" y="571" type="qcurve" smooth="yes"/>
			<point x="568" y="597"/>
			<point x="818" y="659"/>
			<point x="868" y="718" type="qcurve" smooth="yes"/>
			<point x="884" y="734" type="line"/>
			<point x="996" y="734" type="line"/>
			<point x="990" y="713" type="line" smooth="yes"/>
			<point x="976" y="655"/>
			<point x="866" y="554"/>
			<point x="751" y="474" type="qcurve" smooth="yes"/>
			<point x="613" y="378"/>
			<point x="456" y="191"/>
			<point x="456" y="83" type="qcurve" smooth="yes"/>
			<point x="456" y="-9"/>
			<point x="579" y="-111"/>
			<point x="696" y="-111" type="qcurve" smooth="yes"/>
			<point x="818" y="-111"/>
			<point x="973" y="-26"/>
			<point x="983" y="27" type="qcurve" smooth="yes"/>
			<point x="993" y="75"/>
			<point x="858" y="168"/>
			<point x="872" y="249" type="qcurve" smooth="yes"/>
			<point x="882" y="317"/>
			<point x="1017" y="426"/>
			<point x="1129" y="426" type="qcurve" smooth="yes"/>
			<point x="1256" y="426"/>
			<point x="1386" y="268"/>
		</contour>
		<contour>
			<point x="1089" y="1214" type="qcurve" smooth="yes"/>
			<point x="1089" y="1159"/>
			<point x="1012" y="1078"/>
			<point x="952" y="1078" type="qcurve" smooth="yes"/>
			<point x="893" y="1078"/>
			<point x="816" y="1159"/>
			<point x="816" y="1214" type="qcurve" smooth="yes"/>
			<point x="816" y="1268"/>
			<point x="893" y="1350"/>
			<point x="952" y="1350" type="qcurve" smooth="yes"/>
			<point x="1012" y="1350"/>
			<point x="1089" y="1268"/>
		</contour>
	</outline>
</glyph>
<glyph name="dagger" format="2">
	<unicode hex="2020"/>
	<advance width="968"/>
	<outline>
		<contour>
			<point x="251" y="-540" type="line"/>
			<point x="16" y="-58" type="line"/>
			<point x="389" y="550" type="line"/>
			<point x="436" y="830" type="line"/>
			<point x="404" y="1438" type="line"/>
			<point x="573" y="1503" type="line"/>
			<point x="653" y="1506" type="line"/>
			<point x="794" y="1438" type="line"/>
			<point x="556" y="830" type="line"/>
			<point x="509" y="550" type="line"/>
			<point x="666" y="-58" type="line"/>
			<point x="271" y="-540" type="line"/>
		</contour>
		<contour>
			<point x="70" y="729" type="line"/>
			<point x="149" y="1123" type="line"/>
			<point x="525" y="992" type="line"/>
			<point x="973" y="1123" type="line"/>
			<point x="894" y="729" type="line"/>
			<point x="495" y="856" type="line"/>
		</contour>
	</outline>
</glyph>
<glyph name="daggerdbl" format="2">
	<unicode hex="2021"/>
	<advance width="996"/>
	<outline>
		<contour>
			<point x="271" y="-540" type="line"/>
			<point x="36" y="-58" type="line"/>
			<point x="409" y="550" type="line"/>
			<point x="456" y="830" type="line"/>
			<point x="424" y="1438" type="line"/>
			<point x="593" y="1503" type="line"/>
			<point x="673" y="1506" type="line"/>
			<point x="814" y="1438" type="line"/>
			<point x="576" y="830" type="line"/>
			<point x="529" y="550" type="line"/>
			<point x="686" y="-58" type="line"/>
			<point x="291" y="-540" type="line"/>
		</contour>
		<contour>
			<point x="89" y="729" type="line"/>
			<point x="168" y="1123" type="line"/>
			<point x="544" y="992" type="line"/>
			<point x="992" y="1123" type="line"/>
			<point x="913" y="729" type="line"/>
			<point x="514" y="856" type="line"/>
		</contour>
		<contour>
			<point x="13" y="300" type="line"/>
			<point x="92" y="694" type="line"/>
			<point x="468" y="563" type="line"/>
			<point x="916" y="694" type="line"/>
			<point x="837" y="300" type="line"/>
			<point x="438" y="427" type="line"/>
		</contour>
	</outline>
</glyph>
<glyph name="guilsinglleft" format="2">
	<unicode hex="2039"/>
	<advance width="829"/>
	<outline>
		<contour>
			<point x="29" y="624" type="line"/>
			<point x="123" y="675"/>
			<point x="634" y="952"/>
			<point x="713" y="993" type="qcurve" smooth="yes"/>
			<point x="771" y="1023"/>
			<point x="832" y="935"/>
			<point x="780" y="877" type="qcurve" smooth="yes"/>
			<point x="720" y="805"/>
			<point x="596" y="673"/>
			<point x="517" y="599" type="qcurve"/>
			<point x="555" y="527"/>
			<point x="622" y="380"/>
			<point x="664" y="293" type="qcurve" smooth="yes"/>
			<point x="691" y="238"/>
			<point x="622" y="178"/>
			<point x="559" y="213" type="qcurve" smooth="yes"/>
			<point x="499" y="247"/>
			<point x="87" y="536"/>
			<point x="21" y="584" type="qcurve"/>
		</contour>
	</outline>
</glyph>
<glyph name="guilsinglright" format="2">
	<unicode hex="203A"/>
	<advance width="829"/>
	<outline>
		<contour>
			<point x="805" y="577" type="line"/>
			<point x="712" y="526"/>
			<point x="200" y="249"/>
			<point x="121" y="208" type="qcurve" smooth="yes"/>
			<point x="63" y="178"/>
			<point x="2" y="266"/>
			<point x="54" y="324" type="qcurve" smooth="yes"/>
			<point x="114" y="396"/>
			<point x="238" y="528"/>
			<point x="317" y="602" type="qcurve"/>
			<point x="279" y="675"/>
			<point x="212" y="821"/>
			<point x="170" y="908" type="qcurve" smooth="yes"/>
			<point x="143" y="963"/>
			<point x="212" y="1023"/>
			<point x="275" y="988" type="qcurve" smooth="yes"/>
			<point x="335" y="954"/>
			<point x="747" y="665"/>
			<point x="813" y="617" type="qcurve"/>
		</contour>
	</outline>
</glyph>
<glyph name="trademark" format="2">
	<unicode hex="2122"/>
	<advance width="3013"/>
	<outline>
		<contour>
			<point x="117" y="1195" type="line"/>
			<point x="171" y="1500" type="line"/>
			<point x="1313" y="1500" type="line"/>
			<point x="1259" y="1195" type="line"/>
			<point x="1158" y="1195" type="line"/>
			<point x="1157" y="1385" type="line"/>
			<point x="988" y="1385" type="line"/>
			<point x="955" y="1365" type="line"/>
			<point x="903" y="1077" type="line"/>
			<point x="868" y="822" type="line"/>
			<point x="991" y="786" type="line"/>
			<point x="975" y="700" type="line"/>
			<point x="226" y="700" type="line"/>
			<point x="242" y="786" type="line"/>
			<point x="378" y="822" type="line"/>
			<point x="430" y="1090" type="line"/>
			<point x="479" y="1365" type="line"/>
			<point x="464" y="1385" type="line"/>
			<point x="287" y="1385" type="line"/>
			<point x="218" y="1195" type="line"/>
		</contour>
		<contour>
			<point x="1217" y="702" type="line"/>
			<point x="1232" y="785" type="line"/>
			<point x="1356" y="820" type="line"/>
			<point x="1399" y="1056" type="line"/>
			<point x="1450" y="1358" type="line"/>
			<point x="1338" y="1392" type="line"/>
			<point x="1357" y="1500" type="line"/>
			<point x="1981" y="1500" type="line"/>
			<point x="2097" y="866" type="line"/>
			<point x="2433" y="1500" type="line"/>
			<point x="3088" y="1500" type="line"/>
			<point x="3069" y="1392" type="line"/>
			<point x="2955" y="1358" type="line"/>
			<point x="2900" y="1054" type="line"/>
			<point x="2861" y="818" type="line"/>
			<point x="2963" y="783" type="line"/>
			<point x="2947" y="700" type="line"/>
			<point x="2250" y="700" type="line"/>
			<point x="2266" y="783" type="line"/>
			<point x="2370" y="818" type="line"/>
			<point x="2413" y="1054" type="line"/>
			<point x="2460" y="1335" type="line"/>
			<point x="2112" y="692" type="line"/>
			<point x="1678" y="692" type="line"/>
			<point x="1552" y="1350" type="line"/>
			<point x="1498" y="1056" type="line"/>
			<point x="1459" y="820" type="line"/>
			<point x="1571" y="785" type="line"/>
			<point x="1556" y="702" type="line"/>
		</contour>
	</outline>
</glyph>
